<svg id="Layer_1" data-name="Layer 1" xmlns="http://www.w3.org/2000/svg" viewBox="0 0 122.88 121"><defs><style>.cls-1{fill:#ef4136;}.cls-1,.cls-3,.cls-5{fill-rule:evenodd;}.cls-2{fill:gray;}.cls-3{fill:#e6e6e6;}.cls-4{fill:#1a1a1a;}.cls-5{fill:#c72b20;}</style></defs><title>calender-date-3</title><path class="cls-1" d="M11.52,6.67h99.84a11.57,11.57,0,0,1,11.52,11.52V44.94H0V18.19A11.56,11.56,0,0,1,11.52,6.67Zm24.79,9.75A9.31,9.31,0,1,1,27,25.73a9.31,9.31,0,0,1,9.31-9.31Zm49.79,0a9.31,9.31,0,1,1-9.31,9.31,9.31,9.31,0,0,1,9.31-9.31Z"/><path class="cls-2" d="M111.36,121H11.52A11.57,11.57,0,0,1,0,109.48V40H122.88v69.46A11.56,11.56,0,0,1,111.36,121Z"/><path class="cls-3" d="M12.75,117.31h97.38a9.1,9.1,0,0,0,9.06-9.06V40H3.69v68.23a9.09,9.09,0,0,0,9.06,9.06Z"/><path class="cls-4" d="M63.84,101.14q-4.92,0-9.53-.43a80.17,80.17,0,0,1-8.55-1.23V89.89H59.17a22,22,0,0,0,3.71-.24,3.22,3.22,0,0,0,1.82-.8,2.23,2.23,0,0,0,.49-1.54V86.14a2.72,2.72,0,0,0-.55-1.78,3.28,3.28,0,0,0-1.6-1,9.58,9.58,0,0,0-2.58-.4l-11-.49V73.23l10.39-.67a11,11,0,0,0,3.63-.74,2,2,0,0,0,1.17-2V69.3a2.7,2.7,0,0,0-1.23-2.52A9.72,9.72,0,0,0,58.92,66H46.38V56.45q4-.68,8.42-1.26a57,57,0,0,1,9-.46,17.43,17.43,0,0,1,6.79,1.32A9.41,9.41,0,0,1,75,59.86a12.4,12.4,0,0,1,1.54,6.49v3.07a13.54,13.54,0,0,1-.28,2.86,8.1,8.1,0,0,1-.89,2.4,6.5,6.5,0,0,1-1.6,1.87,7.47,7.47,0,0,1-2.39,1.29,6.59,6.59,0,0,1,2.55,1.39,8.12,8.12,0,0,1,1.78,2.24,11.33,11.33,0,0,1,1.08,2.92,16.06,16.06,0,0,1,.36,3.47v1.79q0,5.59-3.53,8.54t-9.74,3Z"/><path class="cls-5" d="M86.1,14.63a11.11,11.11,0,1,1-7.85,3.26l.11-.1a11.06,11.06,0,0,1,7.74-3.16Zm0,1.79a9.31,9.31,0,1,1-9.31,9.31,9.31,9.31,0,0,1,9.31-9.31Z"/><path class="cls-5" d="M36.31,14.63a11.11,11.11,0,1,1-7.85,3.26l.11-.1a11.08,11.08,0,0,1,7.74-3.16Zm0,1.79A9.31,9.31,0,1,1,27,25.73a9.31,9.31,0,0,1,9.31-9.31Z"/><path class="cls-4" d="M80.54,4.56C80.54,2,83,0,86.1,0s5.56,2,5.56,4.56V25.77c0,2.51-2.48,4.56-5.56,4.56s-5.56-2-5.56-4.56V4.56Z"/><path class="cls-4" d="M30.75,4.56C30.75,2,33.24,0,36.31,0s5.56,2,5.56,4.56V25.77c0,2.51-2.48,4.56-5.56,4.56s-5.56-2-5.56-4.56V4.56Z"/></svg>