<svg id="Layer_1" data-name="Layer 1" xmlns="http://www.w3.org/2000/svg" viewBox="0 0 122.88 121"><defs><style>.cls-1{fill:#ef4136;}.cls-1,.cls-3,.cls-5{fill-rule:evenodd;}.cls-2{fill:gray;}.cls-3{fill:#e6e6e6;}.cls-4{fill:#1a1a1a;}.cls-5{fill:#c72b20;}</style></defs><title>calender-date-22</title><path class="cls-1" d="M11.52,6.67h99.84a11.57,11.57,0,0,1,11.52,11.52V44.94H0V18.19A11.56,11.56,0,0,1,11.52,6.67Zm24.79,9.75A9.31,9.31,0,1,1,27,25.73a9.31,9.31,0,0,1,9.31-9.31Zm49.79,0a9.31,9.31,0,1,1-9.31,9.31,9.31,9.31,0,0,1,9.31-9.31Z"/><path class="cls-2" d="M111.36,121H11.52A11.57,11.57,0,0,1,0,109.48V40H122.88v69.46A11.56,11.56,0,0,1,111.36,121Z"/><path class="cls-3" d="M12.75,117.31h97.38a9.09,9.09,0,0,0,9.06-9.06V40H3.69v68.23a9.09,9.09,0,0,0,9.06,9.06Z"/><path class="cls-4" d="M27.75,100.77V91.31L42,76.8a28.53,28.53,0,0,0,2.28-2.52A11.72,11.72,0,0,0,45.67,72a5.21,5.21,0,0,0,.53-2.27,4.08,4.08,0,0,0-.5-2.12,2.8,2.8,0,0,0-1.5-1.2A8,8,0,0,0,41.58,66H28.49V56.58c2-.46,4.25-.87,6.73-1.26a56.19,56.19,0,0,1,8.64-.59,20,20,0,0,1,8.51,1.48,8.84,8.84,0,0,1,4.43,4.36,17,17,0,0,1,1.32,7.07,17.71,17.71,0,0,1-.8,5.47A17.3,17.3,0,0,1,55,77.72,32.59,32.59,0,0,1,51.36,82l-7.87,8.06H59.35v10.69Zm35.78,0V91.31L77.73,76.8A30.19,30.19,0,0,0,80,74.28,12.22,12.22,0,0,0,81.45,72,5.2,5.2,0,0,0,82,69.73a4.08,4.08,0,0,0-.49-2.12A2.82,2.82,0,0,0,80,66.41,7.86,7.86,0,0,0,77.36,66H64.27V56.58c2-.46,4.25-.87,6.73-1.26a56.19,56.19,0,0,1,8.64-.59,20.06,20.06,0,0,1,8.51,1.48,8.88,8.88,0,0,1,4.43,4.36,17,17,0,0,1,1.32,7.07,17.71,17.71,0,0,1-.8,5.47,17,17,0,0,1-2.31,4.61A31.74,31.74,0,0,1,87.14,82l-7.87,8.06H95.13v10.69Z"/><path class="cls-5" d="M86.1,14.63a11.11,11.11,0,1,1-7.85,3.26l.11-.1a11.06,11.06,0,0,1,7.74-3.16Zm0,1.79a9.31,9.31,0,1,1-9.31,9.31,9.31,9.31,0,0,1,9.31-9.31Z"/><path class="cls-5" d="M36.31,14.63a11.11,11.11,0,1,1-7.85,3.26l.11-.1a11.08,11.08,0,0,1,7.74-3.16Zm0,1.79A9.31,9.31,0,1,1,27,25.73a9.31,9.31,0,0,1,9.31-9.31Z"/><path class="cls-4" d="M80.54,4.56C80.54,2,83,0,86.1,0s5.56,2,5.56,4.56V25.77c0,2.51-2.48,4.56-5.56,4.56s-5.56-2-5.56-4.56V4.56Z"/><path class="cls-4" d="M30.75,4.56C30.75,2,33.24,0,36.31,0s5.56,2,5.56,4.56V25.77c0,2.51-2.48,4.56-5.56,4.56s-5.56-2-5.56-4.56V4.56Z"/></svg>