<svg id="Layer_1" data-name="Layer 1" xmlns="http://www.w3.org/2000/svg" viewBox="0 0 122.88 121"><defs><style>.cls-1{fill:#ef4136;}.cls-1,.cls-3,.cls-5{fill-rule:evenodd;}.cls-2{fill:gray;}.cls-3{fill:#e6e6e6;}.cls-4{fill:#1a1a1a;}.cls-5{fill:#c72b20;}</style></defs><title>calender-date-25</title><path class="cls-1" d="M11.52,6.67h99.84a11.57,11.57,0,0,1,11.52,11.52V44.94H0V18.19A11.56,11.56,0,0,1,11.52,6.67Zm24.79,9.75A9.31,9.31,0,1,1,27,25.73a9.31,9.31,0,0,1,9.31-9.31Zm49.79,0a9.31,9.31,0,1,1-9.31,9.31,9.31,9.31,0,0,1,9.31-9.31Z"/><path class="cls-2" d="M111.36,121H11.52A11.57,11.57,0,0,1,0,109.48V40H122.88v69.46A11.56,11.56,0,0,1,111.36,121Z"/><path class="cls-3" d="M12.75,117.31h97.38a9.1,9.1,0,0,0,9.06-9.06V40H3.69v68.23a9.09,9.09,0,0,0,9.06,9.06Z"/><path class="cls-4" d="M26.8,100.77V91.31L41,76.8a30.19,30.19,0,0,0,2.28-2.52A12.22,12.22,0,0,0,44.72,72a5.2,5.2,0,0,0,.52-2.27,4.08,4.08,0,0,0-.49-2.12,2.82,2.82,0,0,0-1.51-1.2A7.86,7.86,0,0,0,40.63,66H27.54V56.58q3-.69,6.73-1.26a56.19,56.19,0,0,1,8.64-.59,20.06,20.06,0,0,1,8.51,1.48,8.84,8.84,0,0,1,4.43,4.36,17,17,0,0,1,1.32,7.07,17.71,17.71,0,0,1-.8,5.47,17,17,0,0,1-2.31,4.61A31.74,31.74,0,0,1,50.41,82l-7.87,8.06H58.4v10.69Zm53.17.37q-3.43,0-7.59-.4c-2.76-.26-5.46-.54-8.08-.83V90.45H80.53a4.07,4.07,0,0,0,2.64-.65A2.43,2.43,0,0,0,84,88.26a11.46,11.46,0,0,0,.12-1.5V84.85a4.2,4.2,0,0,0-.58-2.39,2.52,2.52,0,0,0-2.24-.87H78.62a3.24,3.24,0,0,0-2.12.56,2.37,2.37,0,0,0-.77,1.6H64.42L65.71,55.1H94.17V65.8H75.92l-.31,6.94a5.35,5.35,0,0,1,2.52-1,19.53,19.53,0,0,1,3-.22h4.67A10.48,10.48,0,0,1,91.59,73,8.9,8.9,0,0,1,95,77a13.91,13.91,0,0,1,1.11,5.66v6.7a12,12,0,0,1-1.75,6.79A10,10,0,0,1,89,99.94a28.79,28.79,0,0,1-9,1.2Z"/><path class="cls-5" d="M86.1,14.63a11.11,11.11,0,1,1-7.85,3.26l.11-.1a11.06,11.06,0,0,1,7.74-3.16Zm0,1.79a9.31,9.31,0,1,1-9.31,9.31,9.31,9.31,0,0,1,9.31-9.31Z"/><path class="cls-5" d="M36.31,14.63a11.11,11.11,0,1,1-7.85,3.26l.11-.1a11.08,11.08,0,0,1,7.74-3.16Zm0,1.79A9.31,9.31,0,1,1,27,25.73a9.31,9.31,0,0,1,9.31-9.31Z"/><path class="cls-4" d="M80.54,4.56C80.54,2,83,0,86.1,0s5.56,2,5.56,4.56V25.77c0,2.51-2.48,4.56-5.56,4.56s-5.56-2-5.56-4.56V4.56Z"/><path class="cls-4" d="M30.75,4.56C30.75,2,33.24,0,36.31,0s5.56,2,5.56,4.56V25.77c0,2.51-2.48,4.56-5.56,4.56s-5.56-2-5.56-4.56V4.56Z"/></svg>