<svg id="Layer_1" data-name="Layer 1" xmlns="http://www.w3.org/2000/svg" viewBox="0 0 122.88 121"><defs><style>.cls-1{fill:#ef4136;}.cls-1,.cls-3,.cls-5{fill-rule:evenodd;}.cls-2{fill:gray;}.cls-3{fill:#e6e6e6;}.cls-4{fill:#1a1a1a;}.cls-5{fill:#c72b20;}</style></defs><title>calender-date-30</title><path class="cls-1" d="M11.52,6.67h99.84a11.57,11.57,0,0,1,11.52,11.52V44.94H0V18.19A11.56,11.56,0,0,1,11.52,6.67Zm24.79,9.75A9.31,9.31,0,1,1,27,25.73a9.31,9.31,0,0,1,9.31-9.31Zm49.79,0a9.31,9.31,0,1,1-9.31,9.31,9.31,9.31,0,0,1,9.31-9.31Z"/><path class="cls-2" d="M111.36,121H11.52A11.57,11.57,0,0,1,0,109.48V40H122.88v69.46A11.56,11.56,0,0,1,111.36,121Z"/><path class="cls-3" d="M12.75,117.31h97.38a9.1,9.1,0,0,0,9.06-9.06V40H3.69v68.23a9.09,9.09,0,0,0,9.06,9.06Z"/><path class="cls-4" d="M43.64,101.14c-3.27,0-6.45-.14-9.52-.43a79.8,79.8,0,0,1-8.55-1.23V89.89H39a22.07,22.07,0,0,0,3.72-.24,3.25,3.25,0,0,0,1.82-.8A2.28,2.28,0,0,0,45,87.31V86.14a2.73,2.73,0,0,0-.56-1.78,3.25,3.25,0,0,0-1.59-1,9.59,9.59,0,0,0-2.59-.4l-10.94-.49V73.23l10.39-.67a11,11,0,0,0,3.63-.74,2,2,0,0,0,1.17-2V69.3a2.7,2.7,0,0,0-1.23-2.52A9.72,9.72,0,0,0,38.73,66H26.19V56.45q4-.68,8.42-1.26a56.88,56.88,0,0,1,9-.46,17.45,17.45,0,0,1,6.8,1.32,9.41,9.41,0,0,1,4.39,3.81,12.49,12.49,0,0,1,1.54,6.49v3.07A14.23,14.23,0,0,1,56,72.28a8.1,8.1,0,0,1-.89,2.4,6.5,6.5,0,0,1-1.6,1.87,7.42,7.42,0,0,1-2.4,1.29,6.56,6.56,0,0,1,2.56,1.39,8.31,8.31,0,0,1,1.78,2.24,11,11,0,0,1,1.07,2.92,15.45,15.45,0,0,1,.37,3.47v1.79q0,5.59-3.53,8.54t-9.75,3Zm31.66,0a14.9,14.9,0,0,1-7-1.47,9.39,9.39,0,0,1-4.15-4.28,15.16,15.16,0,0,1-1.35-6.66v-21a15.78,15.78,0,0,1,1.45-7.13,9.8,9.8,0,0,1,4.27-4.39,14.25,14.25,0,0,1,6.82-1.51h10a13.14,13.14,0,0,1,6.55,1.51,9.7,9.7,0,0,1,4,4.39,16.36,16.36,0,0,1,1.39,7.13v21q0,5.77-3.11,9.09t-8.94,3.32Zm3-10.69h3.69a3.06,3.06,0,0,0,3.44-3.57V69c0-1.43-.28-2.38-.86-2.86a3.18,3.18,0,0,0-2.09-.7H77.82a2.89,2.89,0,0,0-2.33.86,4,4,0,0,0-.74,2.7V86.82a3.77,3.77,0,0,0,.86,2.8,3.68,3.68,0,0,0,2.64.83Z"/><path class="cls-5" d="M86.1,14.63a11.11,11.11,0,1,1-7.85,3.26l.11-.1a11.06,11.06,0,0,1,7.74-3.16Zm0,1.79a9.31,9.31,0,1,1-9.31,9.31,9.31,9.31,0,0,1,9.31-9.31Z"/><path class="cls-5" d="M36.31,14.63a11.11,11.11,0,1,1-7.85,3.26l.11-.1a11.08,11.08,0,0,1,7.74-3.16Zm0,1.79A9.31,9.31,0,1,1,27,25.73a9.31,9.31,0,0,1,9.31-9.31Z"/><path class="cls-4" d="M80.54,4.56C80.54,2,83,0,86.1,0s5.56,2,5.56,4.56V25.77c0,2.51-2.48,4.56-5.56,4.56s-5.56-2-5.56-4.56V4.56Z"/><path class="cls-4" d="M30.75,4.56C30.75,2,33.24,0,36.31,0s5.56,2,5.56,4.56V25.77c0,2.51-2.48,4.56-5.56,4.56s-5.56-2-5.56-4.56V4.56Z"/></svg>