<svg id="Layer_1" data-name="Layer 1" xmlns="http://www.w3.org/2000/svg" viewBox="0 0 122.88 121"><defs><style>.cls-1{fill:#ef4136;}.cls-1,.cls-3,.cls-5{fill-rule:evenodd;}.cls-2{fill:gray;}.cls-3{fill:#e6e6e6;}.cls-4{fill:#1a1a1a;}.cls-5{fill:#c72b20;}</style></defs><title>calender-date-8</title><path class="cls-1" d="M11.52,6.67h99.84a11.57,11.57,0,0,1,11.52,11.52V44.94H0V18.19A11.56,11.56,0,0,1,11.52,6.67Zm24.79,9.75A9.31,9.31,0,1,1,27,25.73a9.31,9.31,0,0,1,9.31-9.31Zm49.79,0a9.31,9.31,0,1,1-9.31,9.31,9.31,9.31,0,0,1,9.31-9.31Z"/><path class="cls-2" d="M111.36,121H11.52A11.57,11.57,0,0,1,0,109.48V40H122.88v69.46A11.56,11.56,0,0,1,111.36,121Z"/><path class="cls-3" d="M12.75,117.31h97.38a9.1,9.1,0,0,0,9.06-9.06V40H3.69v68.23a9.09,9.09,0,0,0,9.06,9.06Z"/><path class="cls-4" d="M57.69,101.14a26.25,26.25,0,0,1-4.61-.4A11.64,11.64,0,0,1,49,99.24a7.94,7.94,0,0,1-2.89-3.17A11.75,11.75,0,0,1,45,90.63V84.54a10.43,10.43,0,0,1,.43-3A7,7,0,0,1,46.87,79a4.73,4.73,0,0,1,2.71-1.54A6.64,6.64,0,0,1,47,75.2a6,6,0,0,1-.89-2.7c-.08-1-.12-2-.12-3.08V64.26a9,9,0,0,1,1.57-5.59,8.7,8.7,0,0,1,4.11-3,16.06,16.06,0,0,1,5.44-.92H65.8a15.9,15.9,0,0,1,5.47.92,8.74,8.74,0,0,1,4.09,3,9,9,0,0,1,1.57,5.59v5.16a16.89,16.89,0,0,1-.12,1.72,12.15,12.15,0,0,1-.5,2.31,5.67,5.67,0,0,1-1.1,2.06,3.1,3.1,0,0,1-2,1,4.74,4.74,0,0,1,3.11,2,8.52,8.52,0,0,1,1.22,3.17,17,17,0,0,1,.28,2.82v6.09c0,3-.55,5.24-1.66,6.73a7.94,7.94,0,0,1-4.36,3,21,21,0,0,1-5.84.77Zm2.15-10.08H63c1.35,0,2.17-.26,2.46-.77a4.29,4.29,0,0,0,.43-2.06V85.34a3.09,3.09,0,0,0-.71-2.06,2.56,2.56,0,0,0-2.06-.82H59.84a3.63,3.63,0,0,0-1.29.21,2.14,2.14,0,0,0-.89.61,2.83,2.83,0,0,0-.52.93A3.15,3.15,0,0,0,57,85.34v2.89a3,3,0,0,0,.65,2.22,3.21,3.21,0,0,0,2.24.61Zm0-18.69H63A2.65,2.65,0,0,0,64.6,72,1.55,1.55,0,0,0,65.19,71a11.78,11.78,0,0,0,.12-1.84V67.21c0-1.19-.23-1.89-.71-2.09A4,4,0,0,0,63,64.81h-3.2a3.48,3.48,0,0,0-1.69.34c-.39.23-.58.91-.58,2.06v1.91c0,1.47.17,2.38.52,2.73a2.41,2.41,0,0,0,1.75.52Z"/><path class="cls-5" d="M86.1,14.63a11.11,11.11,0,1,1-7.85,3.26l.11-.1a11.06,11.06,0,0,1,7.74-3.16Zm0,1.79a9.31,9.31,0,1,1-9.31,9.31,9.31,9.31,0,0,1,9.31-9.31Z"/><path class="cls-5" d="M36.31,14.63a11.11,11.11,0,1,1-7.85,3.26l.11-.1a11.08,11.08,0,0,1,7.74-3.16Zm0,1.79A9.31,9.31,0,1,1,27,25.73a9.31,9.31,0,0,1,9.31-9.31Z"/><path class="cls-4" d="M80.54,4.56C80.54,2,83,0,86.1,0s5.56,2,5.56,4.56V25.77c0,2.51-2.48,4.56-5.56,4.56s-5.56-2-5.56-4.56V4.56Z"/><path class="cls-4" d="M30.75,4.56C30.75,2,33.24,0,36.31,0s5.56,2,5.56,4.56V25.77c0,2.51-2.48,4.56-5.56,4.56s-5.56-2-5.56-4.56V4.56Z"/></svg>