<svg width="122.88" height="121" xmlns="http://www.w3.org/2000/svg" style="vector-effect: non-scaling-stroke;" stroke="null" data-name="Layer 1">

 <title style="vector-effect: non-scaling-stroke;" stroke="null">calender-date-20</title>
 <g stroke="null">
  <title stroke="null">Layer 1</title>
  <path stroke="null" id="svg_1" fill-rule="evenodd" fill="#ef4136" d="m11.52,6.67l99.84,0a11.57,11.57 0 0 1 11.52,11.52l0,26.75l-122.88,0l0,-26.75a11.56,11.56 0 0 1 11.52,-11.52zm24.79,9.75a9.31,9.31 0 1 1 -9.31,9.31a9.31,9.31 0 0 1 9.31,-9.31zm49.79,0a9.31,9.31 0 1 1 -9.31,9.31a9.31,9.31 0 0 1 9.31,-9.31z" class="cls-1"/>
  <path stroke="null" id="svg_2" fill="gray" d="m111.36,121l-99.84,0a11.57,11.57 0 0 1 -11.52,-11.52l0,-69.48l122.88,0l0,69.46a11.56,11.56 0 0 1 -11.52,11.54z" class="cls-2"/>
  <path stroke="null" id="svg_3" fill="#e6e6e6" fill-rule="evenodd" d="m12.75,117.31l97.38,0a9.1,9.1 0 0 0 9.06,-9.06l0,-68.25l-115.5,0l0,68.23a9.09,9.09 0 0 0 9.06,9.06l0,0.02z" class="cls-3"/>
  <path stroke="null" id="svg_4" fill="#1a1a1a" d="m9.67294,73.76962a36.52022,38.42841 0 0 0 2.91855,-3.39431a15.00235,15.78622 0 0 0 1.84329,-3.07104a6.66913,7.0176 0 0 0 0.67843,-3.05757a5.22266,5.49555 0 0 0 -0.64003,-2.85553a3.58418,3.77145 0 0 0 -1.9201,-1.61634a10.16371,10.69476 0 0 0 -3.34097,-0.55225l-16.76884,0l0,-12.68824q3.84019,-0.92939 8.61483,-1.69715a71.92678,75.68497 0 0 1 11.02135,-0.7947a25.60127,26.93895 0 0 1 10.89334,1.99348a11.31576,11.90701 0 0 1 5.74749,5.87269a21.76108,22.8981 0 0 1 1.68968,9.52292a22.66993,23.85444 0 0 1 -1.02405,7.3678a22.1451,23.30219 0 0 1 -2.94415,6.20943a41.71728,43.89701 0 0 1 -4.72344,5.76493l-10.0741,10.8564l20.30181,14.39887l-22.27311,-32.25939zm44.54622,32.7847a19.07295,20.06951 0 0 1 -8.96045,-1.98001a11.9558,12.58049 0 0 1 -5.31226,-5.76493a19.40577,20.41972 0 0 1 -1.72809,-8.97067l0,-28.28589a20.37861,21.4434 0 0 1 1.84329,-9.60373a12.64703,13.30784 0 0 1 5.47867,-5.9131a18.24091,19.194 0 0 1 8.78124,-1.99348l12.80064,0a16.73043,17.6046 0 0 1 8.37162,2.03389a12.37822,13.02498 0 0 1 5.19706,5.9131a21.13385,22.2381 0 0 1 1.79209,9.60373l0,28.28589q0,7.77189 -3.9682,12.24375t-11.44377,4.47187l-12.85184,-0.04041zm3.84019,-14.39887l4.72344,0a3.917,4.12166 0 0 0 4.33942,-4.8086l0,-24.08342a4.69783,4.9433 0 0 0 -1.10085,-3.85227a4.0706,4.28329 0 0 0 -2.67533,-0.94286l-5.86269,0a3.71218,3.90615 0 0 0 -2.99535,1.15837a5.23546,5.50901 0 0 0 -0.94725,3.63676l0,24.0026a4.82584,5.07799 0 0 0 1.11366,3.77145a4.71063,4.95677 0 0 0 3.37937,1.11797l0.0256,0z" class="cls-4"/>
  <path stroke="null" id="svg_5" fill="#c72b20" fill-rule="evenodd" d="m86.1,14.63a11.11,11.11 0 1 1 -7.85,3.26l0.11,-0.1a11.06,11.06 0 0 1 7.74,-3.16zm0,1.79a9.31,9.31 0 1 1 -9.31,9.31a9.31,9.31 0 0 1 9.31,-9.31z" class="cls-5"/>
  <path stroke="null" id="svg_6" fill="#c72b20" fill-rule="evenodd" d="m36.31,14.63a11.11,11.11 0 1 1 -7.85,3.26l0.11,-0.1a11.08,11.08 0 0 1 7.74,-3.16zm0,1.79a9.31,9.31 0 1 1 -9.31,9.31a9.31,9.31 0 0 1 9.31,-9.31z" class="cls-5"/>
  <path stroke="null" id="svg_7" fill="#1a1a1a" d="m80.54,4.56c0,-2.56 2.46,-4.56 5.56,-4.56s5.56,2 5.56,4.56l0,21.21c0,2.51 -2.48,4.56 -5.56,4.56s-5.56,-2 -5.56,-4.56l0,-21.21z" class="cls-4"/>
  <path stroke="null" id="svg_8" fill="#1a1a1a" d="m30.75,4.56c0,-2.56 2.49,-4.56 5.56,-4.56s5.56,2 5.56,4.56l0,21.21c0,2.51 -2.48,4.56 -5.56,4.56s-5.56,-2 -5.56,-4.56l0,-21.21z" class="cls-4"/>
  <rect stroke="null" id="svg_9" height="14.92537" width="13.73134" y="68.15671" x="10.39521" opacity="NaN" fill="#1a1a1a"/>
  <rect id="svg_10" height="66.11387" width="31.7634" y="43.48301" x="3.43741" fill="#e6e6e6"/>
  <rect stroke="null" id="svg_11" height="40.29851" width="4.39654" y="41.09572" x="-0.8154" fill="gray"/>
 </g>
</svg>