<svg id="Layer_1" data-name="Layer 1" xmlns="http://www.w3.org/2000/svg" viewBox="0 0 122.88 121"><defs><style>.cls-1{fill:#ef4136;}.cls-1,.cls-3,.cls-5{fill-rule:evenodd;}.cls-2{fill:gray;}.cls-3{fill:#e6e6e6;}.cls-4{fill:#1a1a1a;}.cls-5{fill:#c72b20;}</style></defs><title>calender-date-10</title><path class="cls-1" d="M11.52,6.67h99.84a11.57,11.57,0,0,1,11.52,11.52V44.94H0V18.19A11.56,11.56,0,0,1,11.52,6.67Zm24.79,9.75A9.31,9.31,0,1,1,27,25.73a9.31,9.31,0,0,1,9.31-9.31Zm49.79,0a9.31,9.31,0,1,1-9.31,9.31,9.31,9.31,0,0,1,9.31-9.31Z"/><path class="cls-2" d="M111.36,121H11.52A11.57,11.57,0,0,1,0,109.48V40H122.88v69.46A11.56,11.56,0,0,1,111.36,121Z"/><path class="cls-3" d="M12.75,117.31h97.38a9.1,9.1,0,0,0,9.06-9.06V40H3.69v68.23a9.09,9.09,0,0,0,9.06,9.06Z"/><path class="cls-4" d="M39.25,100.77V66H32V58.42l8.6-3.69H51.17v46Zm29.63.37a14.9,14.9,0,0,1-7-1.47,9.34,9.34,0,0,1-4.15-4.28,15.16,15.16,0,0,1-1.35-6.66v-21a15.92,15.92,0,0,1,1.44-7.13,9.88,9.88,0,0,1,4.28-4.39,14.25,14.25,0,0,1,6.82-1.51h10a13.14,13.14,0,0,1,6.55,1.51,9.7,9.7,0,0,1,4,4.39,16.51,16.51,0,0,1,1.38,7.13v21q0,5.77-3.1,9.09t-8.94,3.32Zm3-10.69h3.69A3.06,3.06,0,0,0,79,86.88V69a3.67,3.67,0,0,0-.86-2.86,3.18,3.18,0,0,0-2.09-.7H71.4a2.9,2.9,0,0,0-2.34.86,4.09,4.09,0,0,0-.73,2.7V86.82a3.77,3.77,0,0,0,.86,2.8,3.68,3.68,0,0,0,2.64.83Z"/><path class="cls-5" d="M86.1,14.63a11.11,11.11,0,1,1-7.85,3.26l.11-.1a11.06,11.06,0,0,1,7.74-3.16Zm0,1.79a9.31,9.31,0,1,1-9.31,9.31,9.31,9.31,0,0,1,9.31-9.31Z"/><path class="cls-5" d="M36.31,14.63a11.11,11.11,0,1,1-7.85,3.26l.11-.1a11.08,11.08,0,0,1,7.74-3.16Zm0,1.79A9.31,9.31,0,1,1,27,25.73a9.31,9.31,0,0,1,9.31-9.31Z"/><path class="cls-4" d="M80.54,4.56C80.54,2,83,0,86.1,0s5.56,2,5.56,4.56V25.77c0,2.51-2.48,4.56-5.56,4.56s-5.56-2-5.56-4.56V4.56Z"/><path class="cls-4" d="M30.75,4.56C30.75,2,33.24,0,36.31,0s5.56,2,5.56,4.56V25.77c0,2.51-2.48,4.56-5.56,4.56s-5.56-2-5.56-4.56V4.56Z"/></svg>