<svg id="Layer_1" data-name="Layer 1" xmlns="http://www.w3.org/2000/svg" viewBox="0 0 122.88 121"><defs><style>.cls-1{fill:#ef4136;}.cls-1,.cls-3,.cls-5{fill-rule:evenodd;}.cls-2{fill:gray;}.cls-3{fill:#e6e6e6;}.cls-4{fill:#1a1a1a;}.cls-5{fill:#c72b20;}</style></defs><title>calender-date-16</title><path class="cls-1" d="M11.52,6.67h99.84a11.57,11.57,0,0,1,11.52,11.52V44.94H0V18.19A11.56,11.56,0,0,1,11.52,6.67Zm24.79,9.75A9.31,9.31,0,1,1,27,25.73a9.31,9.31,0,0,1,9.31-9.31Zm49.79,0a9.31,9.31,0,1,1-9.31,9.31,9.31,9.31,0,0,1,9.31-9.31Z"/><path class="cls-2" d="M111.36,121H11.52A11.57,11.57,0,0,1,0,109.48V40H122.88v69.46A11.56,11.56,0,0,1,111.36,121Z"/><path class="cls-3" d="M12.75,117.31h97.38a9.1,9.1,0,0,0,9.06-9.06V40H3.69v68.23a9.09,9.09,0,0,0,9.06,9.06Z"/><path class="cls-4" d="M39.2,100.77V66H32V58.42l8.61-3.69H51.13v46Zm33.66.37a18.12,18.12,0,0,1-6.33-1A9.7,9.7,0,0,1,62,96.66a17.71,17.71,0,0,1-2.68-6.8A55.84,55.84,0,0,1,58.47,79a48.55,48.55,0,0,1,1.2-11.77,18.24,18.24,0,0,1,3.54-7.44,12.77,12.77,0,0,1,5.65-3.87,23.23,23.23,0,0,1,7.56-1.14c2.17,0,4.28.09,6.3.28a31.07,31.07,0,0,1,5.5,1v9.47H77.84c-2.79,0-4.73.69-5.81,2.09a9.37,9.37,0,0,0-1.63,5.9,11.85,11.85,0,0,1,2.3-.83,14.68,14.68,0,0,1,2.68-.37q1.53-.09,3.81-.09a14.88,14.88,0,0,1,7.34,1.47,7.58,7.58,0,0,1,3.48,4,16.27,16.27,0,0,1,.92,5.59v6.64a12.78,12.78,0,0,1-1.45,6.49A8.62,8.62,0,0,1,85.4,100a15.22,15.22,0,0,1-6.21,1.17Zm2.46-10.69h1a2.93,2.93,0,0,0,1.6-.37,2.12,2.12,0,0,0,.8-1.08A5.24,5.24,0,0,0,79,87.31V85.59a6,6,0,0,0-.28-2.06,1.76,1.76,0,0,0-1-1,5.22,5.22,0,0,0-2-.31H70.4a28.25,28.25,0,0,0,.24,4.06,7,7,0,0,0,.83,2.52A3.21,3.21,0,0,0,73,90.08a6.58,6.58,0,0,0,2.31.37Z"/><path class="cls-5" d="M86.1,14.63a11.11,11.11,0,1,1-7.85,3.26l.11-.1a11.06,11.06,0,0,1,7.74-3.16Zm0,1.79a9.31,9.31,0,1,1-9.31,9.31,9.31,9.31,0,0,1,9.31-9.31Z"/><path class="cls-5" d="M36.31,14.63a11.11,11.11,0,1,1-7.85,3.26l.11-.1a11.08,11.08,0,0,1,7.74-3.16Zm0,1.79A9.31,9.31,0,1,1,27,25.73a9.31,9.31,0,0,1,9.31-9.31Z"/><path class="cls-4" d="M80.54,4.56C80.54,2,83,0,86.1,0s5.56,2,5.56,4.56V25.77c0,2.51-2.48,4.56-5.56,4.56s-5.56-2-5.56-4.56V4.56Z"/><path class="cls-4" d="M30.75,4.56C30.75,2,33.24,0,36.31,0s5.56,2,5.56,4.56V25.77c0,2.51-2.48,4.56-5.56,4.56s-5.56-2-5.56-4.56V4.56Z"/></svg>