<svg id="Layer_1" data-name="Layer 1" xmlns="http://www.w3.org/2000/svg" viewBox="0 0 122.88 121"><defs><style>.cls-1{fill:#ef4136;}.cls-1,.cls-3,.cls-5{fill-rule:evenodd;}.cls-2{fill:gray;}.cls-3{fill:#e6e6e6;}.cls-4{fill:#1a1a1a;}.cls-5{fill:#c72b20;}</style></defs><title>calender-date-18</title><path class="cls-1" d="M11.52,6.67h99.84a11.57,11.57,0,0,1,11.52,11.52V44.94H0V18.19A11.56,11.56,0,0,1,11.52,6.67Zm24.79,9.75A9.31,9.31,0,1,1,27,25.73a9.31,9.31,0,0,1,9.31-9.31Zm49.79,0a9.31,9.31,0,1,1-9.31,9.31,9.31,9.31,0,0,1,9.31-9.31Z"/><path class="cls-2" d="M111.36,121H11.52A11.57,11.57,0,0,1,0,109.48V40H122.88v69.46A11.56,11.56,0,0,1,111.36,121Z"/><path class="cls-3" d="M12.75,117.31h97.38a9.1,9.1,0,0,0,9.06-9.06V40H3.69v68.23a9.09,9.09,0,0,0,9.06,9.06Z"/><path class="cls-4" d="M38.86,100.77V66H31.61V58.42l8.61-3.69H50.79v46Zm32.25.37a26.17,26.17,0,0,1-4.61-.4,11.64,11.64,0,0,1-4.09-1.5,7.94,7.94,0,0,1-2.89-3.17,11.74,11.74,0,0,1-1.08-5.44V84.54a10.8,10.8,0,0,1,.43-3A7.2,7.2,0,0,1,60.29,79,4.67,4.67,0,0,1,63,77.41a6.61,6.61,0,0,1-2.61-2.21,6,6,0,0,1-.89-2.7c-.09-1-.13-2-.13-3.08V64.26a9.11,9.11,0,0,1,1.57-5.59,8.77,8.77,0,0,1,4.12-3,16,16,0,0,1,5.44-.92h8.73a15.9,15.9,0,0,1,5.47.92,8.79,8.79,0,0,1,4.09,3,9.11,9.11,0,0,1,1.57,5.59v5.16a14.82,14.82,0,0,1-.13,1.72,12.1,12.1,0,0,1-.49,2.31,5.68,5.68,0,0,1-1.11,2.06,3.07,3.07,0,0,1-2,1,4.72,4.72,0,0,1,3.1,2A8.37,8.37,0,0,1,91,81.72a18.15,18.15,0,0,1,.28,2.82v6.09c0,3-.56,5.24-1.66,6.73a8,8,0,0,1-4.37,3,21,21,0,0,1-5.84.77Zm2.15-10.08h3.19c1.36,0,2.17-.26,2.46-.77a4.18,4.18,0,0,0,.43-2.06V85.34a3,3,0,0,0-.71-2.06,2.54,2.54,0,0,0-2-.82H73.26a3.6,3.6,0,0,0-1.29.21,2.25,2.25,0,0,0-.9.61,3,3,0,0,0-.52.93,3.39,3.39,0,0,0-.18,1.13v2.89A3,3,0,0,0,71,90.45a3.24,3.24,0,0,0,2.25.61Zm0-18.69h3.19A2.7,2.7,0,0,0,78,72,1.55,1.55,0,0,0,78.6,71a10.56,10.56,0,0,0,.13-1.84V67.21c0-1.19-.24-1.89-.71-2.09a4,4,0,0,0-1.57-.31H73.26a3.48,3.48,0,0,0-1.69.34c-.39.23-.59.91-.59,2.06v1.91c0,1.47.18,2.38.53,2.73a2.39,2.39,0,0,0,1.75.52Z"/><path class="cls-5" d="M86.1,14.63a11.11,11.11,0,1,1-7.85,3.26l.11-.1a11.06,11.06,0,0,1,7.74-3.16Zm0,1.79a9.31,9.31,0,1,1-9.31,9.31,9.31,9.31,0,0,1,9.31-9.31Z"/><path class="cls-5" d="M36.31,14.63a11.11,11.11,0,1,1-7.85,3.26l.11-.1a11.08,11.08,0,0,1,7.74-3.16Zm0,1.79A9.31,9.31,0,1,1,27,25.73a9.31,9.31,0,0,1,9.31-9.31Z"/><path class="cls-4" d="M80.54,4.56C80.54,2,83,0,86.1,0s5.56,2,5.56,4.56V25.77c0,2.51-2.48,4.56-5.56,4.56s-5.56-2-5.56-4.56V4.56Z"/><path class="cls-4" d="M30.75,4.56C30.75,2,33.24,0,36.31,0s5.56,2,5.56,4.56V25.77c0,2.51-2.48,4.56-5.56,4.56s-5.56-2-5.56-4.56V4.56Z"/></svg>