<svg id="Layer_1" data-name="Layer 1" xmlns="http://www.w3.org/2000/svg" viewBox="0 0 122.88 121"><defs><style>.cls-1{fill:#ef4136;}.cls-1,.cls-3,.cls-5{fill-rule:evenodd;}.cls-2{fill:gray;}.cls-3{fill:#e6e6e6;}.cls-4{fill:#1a1a1a;}.cls-5{fill:#c72b20;}</style></defs><title>calender-date-26</title><path class="cls-1" d="M11.52,6.67h99.84a11.57,11.57,0,0,1,11.52,11.52V44.94H0V18.19A11.56,11.56,0,0,1,11.52,6.67Zm24.79,9.75A9.31,9.31,0,1,1,27,25.73a9.31,9.31,0,0,1,9.31-9.31Zm49.79,0a9.31,9.31,0,1,1-9.31,9.31,9.31,9.31,0,0,1,9.31-9.31Z"/><path class="cls-2" d="M111.36,121H11.52A11.57,11.57,0,0,1,0,109.48V40H122.88v69.46A11.56,11.56,0,0,1,111.36,121Z"/><path class="cls-3" d="M12.75,117.31h97.38a9.1,9.1,0,0,0,9.06-9.06V40H3.69v68.23a9.09,9.09,0,0,0,9.06,9.06Z"/><path class="cls-4" d="M26.65,100.77V91.31L40.85,76.8a28.28,28.28,0,0,0,2.27-2.52A11.8,11.8,0,0,0,44.57,72a5.34,5.34,0,0,0,.52-2.27,4.18,4.18,0,0,0-.49-2.12,2.82,2.82,0,0,0-1.51-1.2A7.9,7.9,0,0,0,40.48,66H27.38V56.58q3-.69,6.74-1.26a56.05,56.05,0,0,1,8.63-.59,20.08,20.08,0,0,1,8.52,1.48,8.82,8.82,0,0,1,4.42,4.36A17,17,0,0,1,57,67.64a16.89,16.89,0,0,1-3.1,10.08A31.14,31.14,0,0,1,50.25,82l-7.86,8.06H58.24v10.69Zm51.51.37a18.12,18.12,0,0,1-6.33-1,9.75,9.75,0,0,1-4.49-3.47,17.55,17.55,0,0,1-2.67-6.8A55.07,55.07,0,0,1,63.78,79,48,48,0,0,1,65,67.18a18.11,18.11,0,0,1,3.53-7.44,12.79,12.79,0,0,1,5.66-3.87,23.19,23.19,0,0,1,7.56-1.14q3.26,0,6.3.28a31.23,31.23,0,0,1,5.5,1v9.47H83.14c-2.79,0-4.72.69-5.81,2.09a9.37,9.37,0,0,0-1.63,5.9A11.7,11.7,0,0,1,78,72.59a14.69,14.69,0,0,1,2.67-.37c1-.06,2.3-.09,3.81-.09a14.92,14.92,0,0,1,7.35,1.47,7.56,7.56,0,0,1,3.47,4,16.27,16.27,0,0,1,.92,5.59v6.64a12.89,12.89,0,0,1-1.44,6.49A8.65,8.65,0,0,1,90.7,100a15.22,15.22,0,0,1-6.21,1.17Zm2.46-10.69h1a2.93,2.93,0,0,0,1.6-.37,2.06,2.06,0,0,0,.8-1.08,5,5,0,0,0,.25-1.69V85.59A5.78,5.78,0,0,0,84,83.53a1.74,1.74,0,0,0-1-1A5.27,5.27,0,0,0,81,82.21H75.7A26.7,26.7,0,0,0,76,86.27a6.59,6.59,0,0,0,.83,2.52,3.18,3.18,0,0,0,1.53,1.29,6.58,6.58,0,0,0,2.31.37Z"/><path class="cls-5" d="M86.1,14.63a11.11,11.11,0,1,1-7.85,3.26l.11-.1a11.06,11.06,0,0,1,7.74-3.16Zm0,1.79a9.31,9.31,0,1,1-9.31,9.31,9.31,9.31,0,0,1,9.31-9.31Z"/><path class="cls-5" d="M36.31,14.63a11.11,11.11,0,1,1-7.85,3.26l.11-.1a11.08,11.08,0,0,1,7.74-3.16Zm0,1.79A9.31,9.31,0,1,1,27,25.73a9.31,9.31,0,0,1,9.31-9.31Z"/><path class="cls-4" d="M80.54,4.56C80.54,2,83,0,86.1,0s5.56,2,5.56,4.56V25.77c0,2.51-2.48,4.56-5.56,4.56s-5.56-2-5.56-4.56V4.56Z"/><path class="cls-4" d="M30.75,4.56C30.75,2,33.24,0,36.31,0s5.56,2,5.56,4.56V25.77c0,2.51-2.48,4.56-5.56,4.56s-5.56-2-5.56-4.56V4.56Z"/></svg>