<svg id="Layer_1" data-name="Layer 1" xmlns="http://www.w3.org/2000/svg" viewBox="0 0 122.88 121"><defs><style>.cls-1{fill:#ef4136;}.cls-1,.cls-3,.cls-5{fill-rule:evenodd;}.cls-2{fill:gray;}.cls-3{fill:#e6e6e6;}.cls-4{fill:#1a1a1a;}.cls-5{fill:#c72b20;}</style></defs><title>calender-date-29</title><path class="cls-1" d="M11.52,6.67h99.84a11.57,11.57,0,0,1,11.52,11.52V44.94H0V18.19A11.56,11.56,0,0,1,11.52,6.67Zm24.79,9.75A9.31,9.31,0,1,1,27,25.73a9.31,9.31,0,0,1,9.31-9.31Zm49.79,0a9.31,9.31,0,1,1-9.31,9.31,9.31,9.31,0,0,1,9.31-9.31Z"/><path class="cls-2" d="M111.36,121H11.52A11.57,11.57,0,0,1,0,109.48V40H122.88v69.46A11.56,11.56,0,0,1,111.36,121Z"/><path class="cls-3" d="M12.75,117.31h97.38a9.1,9.1,0,0,0,9.06-9.06V40H3.69v68.23a9.09,9.09,0,0,0,9.06,9.06Z"/><path class="cls-4" d="M26.74,100.77V91.31L40.94,76.8a28.28,28.28,0,0,0,2.27-2.52A11.8,11.8,0,0,0,44.66,72a5.2,5.2,0,0,0,.52-2.27,4.08,4.08,0,0,0-.49-2.12,2.82,2.82,0,0,0-1.51-1.2A7.86,7.86,0,0,0,40.57,66H27.48V56.58c2-.46,4.25-.88,6.73-1.26a56.19,56.19,0,0,1,8.64-.59,20.06,20.06,0,0,1,8.51,1.48,8.82,8.82,0,0,1,4.42,4.36,17,17,0,0,1,1.33,7.07,17.71,17.71,0,0,1-.8,5.47A17.33,17.33,0,0,1,54,77.72,31.14,31.14,0,0,1,50.34,82l-7.86,8.06H58.33v10.69Zm51.45.37a60.38,60.38,0,0,1-6.27-.31,40.08,40.08,0,0,1-5.53-.92V90.45H76.78q4.17,0,5.81-2.09a9.45,9.45,0,0,0,1.63-5.9,15.37,15.37,0,0,1-2.28.79,13.52,13.52,0,0,1-2.7.4c-1,.07-2.3.1-3.82.1a14.71,14.71,0,0,1-7.31-1.48,7.7,7.7,0,0,1-3.47-4,15.58,15.58,0,0,1-1-5.59V66a12.74,12.74,0,0,1,1.45-6.48,8.62,8.62,0,0,1,4.09-3.66,15.21,15.21,0,0,1,6.2-1.17h6.34a18,18,0,0,1,6.33,1,9.55,9.55,0,0,1,4.48,3.47A17.65,17.65,0,0,1,95.25,66a55.91,55.91,0,0,1,.89,10.91,48.55,48.55,0,0,1-1.2,11.77,18.3,18.3,0,0,1-3.53,7.44A12.79,12.79,0,0,1,85.75,100a23.47,23.47,0,0,1-7.56,1.13Zm.74-27.48h5.29a27.81,27.81,0,0,0-.25-4,6.65,6.65,0,0,0-.83-2.52,3.08,3.08,0,0,0-1.51-1.29,6.22,6.22,0,0,0-2.33-.37h-1a2.9,2.9,0,0,0-1.57.37,2.05,2.05,0,0,0-.83,1,5.24,5.24,0,0,0-.24,1.72v1.72a6.1,6.1,0,0,0,.27,2,1.82,1.82,0,0,0,1,1,5.54,5.54,0,0,0,2,.3Z"/><path class="cls-5" d="M86.1,14.63a11.11,11.11,0,1,1-7.85,3.26l.11-.1a11.06,11.06,0,0,1,7.74-3.16Zm0,1.79a9.31,9.31,0,1,1-9.31,9.31,9.31,9.31,0,0,1,9.31-9.31Z"/><path class="cls-5" d="M36.31,14.63a11.11,11.11,0,1,1-7.85,3.26l.11-.1a11.08,11.08,0,0,1,7.74-3.16Zm0,1.79A9.31,9.31,0,1,1,27,25.73a9.31,9.31,0,0,1,9.31-9.31Z"/><path class="cls-4" d="M80.54,4.56C80.54,2,83,0,86.1,0s5.56,2,5.56,4.56V25.77c0,2.51-2.48,4.56-5.56,4.56s-5.56-2-5.56-4.56V4.56Z"/><path class="cls-4" d="M30.75,4.56C30.75,2,33.24,0,36.31,0s5.56,2,5.56,4.56V25.77c0,2.51-2.48,4.56-5.56,4.56s-5.56-2-5.56-4.56V4.56Z"/></svg>