<svg id="Layer_1" data-name="Layer 1" xmlns="http://www.w3.org/2000/svg" viewBox="0 0 122.88 121"><defs><style>.cls-1{fill:#ef4136;}.cls-1,.cls-3,.cls-5{fill-rule:evenodd;}.cls-2{fill:gray;}.cls-3{fill:#e6e6e6;}.cls-4{fill:#1a1a1a;}.cls-5{fill:#c72b20;}</style></defs><title>calender-date-13</title><path class="cls-1" d="M11.52,6.67h99.84a11.57,11.57,0,0,1,11.52,11.52V44.94H0V18.19A11.56,11.56,0,0,1,11.52,6.67Zm24.79,9.75A9.31,9.31,0,1,1,27,25.73a9.31,9.31,0,0,1,9.31-9.31Zm49.79,0a9.31,9.31,0,1,1-9.31,9.31,9.31,9.31,0,0,1,9.31-9.31Z"/><path class="cls-2" d="M111.36,121H11.52A11.57,11.57,0,0,1,0,109.48V40H122.88v69.46A11.56,11.56,0,0,1,111.36,121Z"/><path class="cls-3" d="M12.75,117.31h97.38a9.1,9.1,0,0,0,9.06-9.06V40H3.69v68.23a9.09,9.09,0,0,0,9.06,9.06Z"/><path class="cls-4" d="M40.23,100.77V66H33V58.42l8.6-3.69H52.16v46Zm36.39.37q-4.92,0-9.52-.43a79.43,79.43,0,0,1-8.55-1.23V89.89H72a22.07,22.07,0,0,0,3.72-.24,3.18,3.18,0,0,0,1.81-.8,2.23,2.23,0,0,0,.5-1.54V86.14a2.73,2.73,0,0,0-.56-1.78,3.28,3.28,0,0,0-1.6-1,9.45,9.45,0,0,0-2.58-.4L62.3,82.46V73.23l10.39-.67a11,11,0,0,0,3.63-.74,2,2,0,0,0,1.16-2V69.3a2.7,2.7,0,0,0-1.23-2.52A9.67,9.67,0,0,0,71.71,66H59.17V56.45q4-.68,8.42-1.26a56.88,56.88,0,0,1,9-.46,17.4,17.4,0,0,1,6.79,1.32,9.44,9.44,0,0,1,4.4,3.81,12.49,12.49,0,0,1,1.54,6.49v3.07A14.23,14.23,0,0,1,89,72.28a8.38,8.38,0,0,1-.89,2.4,6.66,6.66,0,0,1-1.6,1.87,7.63,7.63,0,0,1-2.4,1.29,6.45,6.45,0,0,1,2.55,1.39,8.34,8.34,0,0,1,1.79,2.24,11,11,0,0,1,1.07,2.92,15.45,15.45,0,0,1,.37,3.47v1.79q0,5.59-3.53,8.54t-9.75,3Z"/><path class="cls-5" d="M86.1,14.63a11.11,11.11,0,1,1-7.85,3.26l.11-.1a11.06,11.06,0,0,1,7.74-3.16Zm0,1.79a9.31,9.31,0,1,1-9.31,9.31,9.31,9.31,0,0,1,9.31-9.31Z"/><path class="cls-5" d="M36.31,14.63a11.11,11.11,0,1,1-7.85,3.26l.11-.1a11.08,11.08,0,0,1,7.74-3.16Zm0,1.79A9.31,9.31,0,1,1,27,25.73a9.31,9.31,0,0,1,9.31-9.31Z"/><path class="cls-4" d="M80.54,4.56C80.54,2,83,0,86.1,0s5.56,2,5.56,4.56V25.77c0,2.51-2.48,4.56-5.56,4.56s-5.56-2-5.56-4.56V4.56Z"/><path class="cls-4" d="M30.75,4.56C30.75,2,33.24,0,36.31,0s5.56,2,5.56,4.56V25.77c0,2.51-2.48,4.56-5.56,4.56s-5.56-2-5.56-4.56V4.56Z"/></svg>