<svg id="Layer_1" data-name="Layer 1" xmlns="http://www.w3.org/2000/svg" viewBox="0 0 122.88 121"><defs><style>.cls-1{fill:#ef4136;}.cls-1,.cls-3,.cls-5{fill-rule:evenodd;}.cls-2{fill:gray;}.cls-3{fill:#e6e6e6;}.cls-4{fill:#1a1a1a;}.cls-5{fill:#c72b20;}</style></defs><title>calender-date-20</title><path class="cls-1" d="M11.52,6.67h99.84a11.57,11.57,0,0,1,11.52,11.52V44.94H0V18.19A11.56,11.56,0,0,1,11.52,6.67Zm24.79,9.75A9.31,9.31,0,1,1,27,25.73a9.31,9.31,0,0,1,9.31-9.31Zm49.79,0a9.31,9.31,0,1,1-9.31,9.31,9.31,9.31,0,0,1,9.31-9.31Z"/><path class="cls-2" d="M111.36,121H11.52A11.57,11.57,0,0,1,0,109.48V40H122.88v69.46A11.56,11.56,0,0,1,111.36,121Z"/><path class="cls-3" d="M12.75,117.31h97.38a9.1,9.1,0,0,0,9.06-9.06V40H3.69v68.23a9.09,9.09,0,0,0,9.06,9.06Z"/><path class="cls-4" d="M25.92,100.77V91.31L40.12,76.8a28.53,28.53,0,0,0,2.28-2.52A11.72,11.72,0,0,0,43.84,72a5.21,5.21,0,0,0,.53-2.27,4.08,4.08,0,0,0-.5-2.12,2.8,2.8,0,0,0-1.5-1.2A7.94,7.94,0,0,0,39.76,66H26.66V56.58q3-.69,6.73-1.26A56.19,56.19,0,0,1,42,54.73a20,20,0,0,1,8.51,1.48A8.84,8.84,0,0,1,55,60.57a17,17,0,0,1,1.32,7.07,17.71,17.71,0,0,1-.8,5.47,17.3,17.3,0,0,1-2.3,4.61A32.59,32.59,0,0,1,49.53,82l-7.87,8.06H57.52v10.69Zm49,.37a14.9,14.9,0,0,1-7-1.47,9.34,9.34,0,0,1-4.15-4.28,15.16,15.16,0,0,1-1.35-6.66v-21a15.92,15.92,0,0,1,1.44-7.13,9.88,9.88,0,0,1,4.28-4.39A14.25,14.25,0,0,1,75,54.73H85a13.07,13.07,0,0,1,6.54,1.51,9.67,9.67,0,0,1,4.06,4.39A16.51,16.51,0,0,1,97,67.76v21q0,5.77-3.1,9.09t-8.94,3.32Zm3-10.69h3.69A3.06,3.06,0,0,0,85,86.88V69a3.67,3.67,0,0,0-.86-2.86,3.18,3.18,0,0,0-2.09-.7H77.47a2.9,2.9,0,0,0-2.34.86,4.09,4.09,0,0,0-.74,2.7V86.82a3.77,3.77,0,0,0,.87,2.8,3.68,3.68,0,0,0,2.64.83Z"/><path class="cls-5" d="M86.1,14.63a11.11,11.11,0,1,1-7.85,3.26l.11-.1a11.06,11.06,0,0,1,7.74-3.16Zm0,1.79a9.31,9.31,0,1,1-9.31,9.31,9.31,9.31,0,0,1,9.31-9.31Z"/><path class="cls-5" d="M36.31,14.63a11.11,11.11,0,1,1-7.85,3.26l.11-.1a11.08,11.08,0,0,1,7.74-3.16Zm0,1.79A9.31,9.31,0,1,1,27,25.73a9.31,9.31,0,0,1,9.31-9.31Z"/><path class="cls-4" d="M80.54,4.56C80.54,2,83,0,86.1,0s5.56,2,5.56,4.56V25.77c0,2.51-2.48,4.56-5.56,4.56s-5.56-2-5.56-4.56V4.56Z"/><path class="cls-4" d="M30.75,4.56C30.75,2,33.24,0,36.31,0s5.56,2,5.56,4.56V25.77c0,2.51-2.48,4.56-5.56,4.56s-5.56-2-5.56-4.56V4.56Z"/></svg>